<svg id="Layer_1" data-name="Layer 1" xmlns="http://www.w3.org/2000/svg" viewBox="0 0 356.83 356.83"><path d="M344.72,179.36a47.57,47.57,0,0,1-47.57,47.57H204.08l-26.31-26.32,28.54-28.54A22.57,22.57,0,1,0,193,158.76L157.8,194a9.41,9.41,0,0,0,0,13.3l19.67,19.67H59.68a47.57,47.57,0,0,1-.51-95.13A65.09,65.09,0,0,1,69.89,98.53c20.6-31.25,63.9-39.34,97.21-18.39,17-26.95,48.21-42.31,80.21-36.36C288.17,51.39,315.37,91,310,133.54a47.55,47.55,0,0,1,34.77,45.82Z"/><circle cx="142.66" cy="291.74" r="22.59"/><path d="M205.77,241.93l-56.46,56.46A9.41,9.41,0,1,1,136,285.08l14.52-14.52,35.29-35.29-8.34-8.34h26.61l1.69,1.69A9.4,9.4,0,0,1,205.77,241.93Z"/></svg>