<svg id="Layer_1" data-name="Layer 1" xmlns="http://www.w3.org/2000/svg" viewBox="0 0 1066 304.67"><defs><style>.cls-1{fill:#666;}</style></defs><path d="M354.6,153.28A47.56,47.56,0,0,1,307,200.84H214l-26.32-26.31L216.19,146a22.57,22.57,0,1,0-13.31-13.31l-35.19,35.19a9.4,9.4,0,0,0,0,13.31l19.66,19.66H69.56a47.56,47.56,0,0,1-.5-95.12A65.11,65.11,0,0,1,79.77,72.44C100.37,41.2,143.68,33.11,177,54.06c17-26.95,48.2-42.31,80.2-36.36,40.86,7.61,68.06,47.19,62.65,89.75a47.58,47.58,0,0,1,34.76,45.83Z"/><circle cx="152.54" cy="265.65" r="22.59"/><path d="M215.66,215.85l-56.47,56.46A9.41,9.41,0,0,1,145.88,259l14.53-14.52,35.29-35.29-8.35-8.35H214l1.69,1.7A9.42,9.42,0,0,1,215.66,215.85Z"/><path d="M405.48,200.84V119.75H439.3q9.1,0,15.27,2.57a20.11,20.11,0,0,1,9.26,7.21,18.71,18.71,0,0,1,3.11,10.73,17.21,17.21,0,0,1-1.94,8.25,17,17,0,0,1-5.34,6,21.29,21.29,0,0,1-7.88,3.33v.79a19.91,19.91,0,0,1,9.08,2.65,18.5,18.5,0,0,1,6.72,6.72,19.7,19.7,0,0,1,2.53,10.15,21,21,0,0,1-3.33,11.67,22.41,22.41,0,0,1-9.62,8.07,35.78,35.78,0,0,1-15.28,3Zm19.61-47.75h10.85a14.45,14.45,0,0,0,5.7-1.07,8.87,8.87,0,0,0,3.9-3.09,8.37,8.37,0,0,0,1.4-4.87,7.8,7.8,0,0,0-2.89-6.42,12.07,12.07,0,0,0-7.8-2.33H425.09Zm0,31.95H437.2q6.38,0,9.41-2.41a8.13,8.13,0,0,0,3-6.73,9.76,9.76,0,0,0-1.47-5.41A9.56,9.56,0,0,0,444,167a15.24,15.24,0,0,0-6.45-1.25H425.09Z"/><path d="M501.69,119.75v81.09H482.32V119.75Z"/><path d="M533.89,201.87a25.49,25.49,0,0,1-10.31-2,15.7,15.7,0,0,1-7.09-5.94,17.93,17.93,0,0,1-2.59-10,18.64,18.64,0,0,1,1.78-8.55,15.21,15.21,0,0,1,4.91-5.66,23.43,23.43,0,0,1,7.2-3.31,47.88,47.88,0,0,1,8.72-1.52c3.45-.32,6.24-.66,8.35-1a11.75,11.75,0,0,0,4.62-1.55,3.29,3.29,0,0,0,1.44-2.87v-.2a5.66,5.66,0,0,0-2.1-4.71,8.85,8.85,0,0,0-5.66-1.66,10.44,10.44,0,0,0-6.18,1.66,7.31,7.31,0,0,0-3,4.59l-17.86-.63a21.25,21.25,0,0,1,4.1-9.92,22.28,22.28,0,0,1,9.11-6.89,35.11,35.11,0,0,1,14-2.51,39.54,39.54,0,0,1,10.73,1.37,27.36,27.36,0,0,1,8.55,4,18.22,18.22,0,0,1,5.64,6.36,17.94,17.94,0,0,1,2,8.59v41.34H552v-8.47h-.48a17.5,17.5,0,0,1-4.13,5.23,16.92,16.92,0,0,1-5.9,3.2A25.08,25.08,0,0,1,533.89,201.87Zm6-12.67a12.32,12.32,0,0,0,5.65-1.27,10.32,10.32,0,0,0,4-3.5,9.07,9.07,0,0,0,1.51-5.21v-5.78a11,11,0,0,1-2,.79c-.78.24-1.63.46-2.55.68s-1.88.39-2.86.55l-2.81.44a17.45,17.45,0,0,0-4.65,1.34,7.31,7.31,0,0,0-2.93,2.36,5.83,5.83,0,0,0-1,3.42,5.36,5.36,0,0,0,2.16,4.6A9.07,9.07,0,0,0,539.87,189.2Z"/><path d="M613.22,202a32.5,32.5,0,0,1-16.49-4,26.64,26.64,0,0,1-10.55-11,38.25,38.25,0,0,1,0-32.78,26.81,26.81,0,0,1,10.57-11,32.32,32.32,0,0,1,16.41-4,33.31,33.31,0,0,1,14.71,3.05,23.48,23.48,0,0,1,9.82,8.61,25,25,0,0,1,3.75,13.05h-18.1a12.19,12.19,0,0,0-3.15-7.33,9,9,0,0,0-6.75-2.65,9.66,9.66,0,0,0-5.9,1.88,12,12,0,0,0-3.94,5.54,25.37,25.37,0,0,0-1.41,9.05,25.68,25.68,0,0,0,1.41,9.09,12,12,0,0,0,3.94,5.58,9.6,9.6,0,0,0,5.9,1.88,9.73,9.73,0,0,0,4.77-1.14,9.21,9.21,0,0,0,3.43-3.39,13.46,13.46,0,0,0,1.7-5.44h18.1a26.52,26.52,0,0,1-3.75,13.14,23.29,23.29,0,0,1-9.7,8.73A32.66,32.66,0,0,1,613.22,202Z"/><path d="M654.18,200.84V119.75h19.37v81.09Zm17.47-16,.08-23.09h2.69L691.53,140h21.93L688,171.22h-5.11Zm20.31,16L676,175.58l12.75-13.74,25.54,39Z"/><path class="cls-1" d="M793.35,146.12H781a18.88,18.88,0,0,0-2.65-7,19.47,19.47,0,0,0-4.75-5.11,20.75,20.75,0,0,0-6.28-3.17A24.87,24.87,0,0,0,760,129.8a22.82,22.82,0,0,0-12.54,3.53,23.89,23.89,0,0,0-8.71,10.33q-3.18,6.81-3.18,16.63T738.72,177a23.58,23.58,0,0,0,8.73,10.29,23,23,0,0,0,12.48,3.49,25,25,0,0,0,7.3-1,20.72,20.72,0,0,0,6.28-3.11,19.47,19.47,0,0,0,4.77-5,18.84,18.84,0,0,0,2.71-6.87l12.36,0a33.14,33.14,0,0,1-3.82,11,30.6,30.6,0,0,1-7.25,8.63A32.82,32.82,0,0,1,772.2,200a37.15,37.15,0,0,1-12.35,2,35.4,35.4,0,0,1-18.77-5,34.62,34.62,0,0,1-13-14.35q-4.73-9.34-4.73-22.3T728.13,138a34.8,34.8,0,0,1,13-14.33,35.31,35.31,0,0,1,18.73-5,38.37,38.37,0,0,1,12.06,1.84A32.43,32.43,0,0,1,782,125.86a29.85,29.85,0,0,1,7.41,8.64A33.62,33.62,0,0,1,793.35,146.12Z"/><path class="cls-1" d="M821.68,119.75v81.09H809.84V119.75Z"/><path class="cls-1" d="M866,202.07a28,28,0,0,1-14.93-3.92,26.42,26.42,0,0,1-9.9-11,40.48,40.48,0,0,1,0-33,26.34,26.34,0,0,1,9.9-11,30.39,30.39,0,0,1,29.86,0,26.34,26.34,0,0,1,9.9,11,40.37,40.37,0,0,1,0,33,26.42,26.42,0,0,1-9.9,11A27.94,27.94,0,0,1,866,202.07Zm0-9.94a14.16,14.16,0,0,0,9.19-2.93,17.21,17.21,0,0,0,5.4-7.8,33.35,33.35,0,0,0,0-21.44,17.51,17.51,0,0,0-5.4-7.86,15.78,15.78,0,0,0-18.43,0,17.41,17.41,0,0,0-5.43,7.86,33.53,33.53,0,0,0,0,21.44,17.11,17.11,0,0,0,5.43,7.8A14.28,14.28,0,0,0,866,192.13Z"/><path class="cls-1" d="M948.86,175.62V140h11.88v60.82H949.1V190.31h-.64a18.85,18.85,0,0,1-6.71,8.1,19.54,19.54,0,0,1-11.46,3.23,20.36,20.36,0,0,1-10.36-2.6,17.74,17.74,0,0,1-7-7.7,28.14,28.14,0,0,1-2.55-12.63V140h11.84v37.26q0,6.22,3.44,9.9a11.68,11.68,0,0,0,8.95,3.68,14.66,14.66,0,0,0,6.64-1.66,14.12,14.12,0,0,0,5.5-5A15.13,15.13,0,0,0,948.86,175.62Z"/><path class="cls-1" d="M1002.17,202A23.42,23.42,0,0,1,989,198.25a25.2,25.2,0,0,1-9-10.81,39.82,39.82,0,0,1-3.27-16.89,39.2,39.2,0,0,1,3.31-16.87A25.1,25.1,0,0,1,989.14,143a23.73,23.73,0,0,1,13.11-3.72,19,19,0,0,1,9.13,1.88,16.57,16.57,0,0,1,5.38,4.38,37.12,37.12,0,0,1,3,4.39h.72V119.75h11.84v81.09h-11.57v-9.46h-1a31.33,31.33,0,0,1-3.07,4.43,17.28,17.28,0,0,1-5.48,4.36A19.11,19.11,0,0,1,1002.17,202Zm2.62-10.1a13.8,13.8,0,0,0,8.65-2.71,16.67,16.67,0,0,0,5.38-7.54,31.44,31.44,0,0,0,1.84-11.25,30.71,30.71,0,0,0-1.82-11.08,16.25,16.25,0,0,0-5.34-7.41,15.68,15.68,0,0,0-17.62.12,16.8,16.8,0,0,0-5.37,7.56,30.6,30.6,0,0,0-1.8,10.81,31.24,31.24,0,0,0,1.82,11,17.15,17.15,0,0,0,5.41,7.7A13.78,13.78,0,0,0,1004.79,191.93Z"/></svg>