<svg id="Layer_1" data-name="Layer 1" xmlns="http://www.w3.org/2000/svg" viewBox="0 0 356.83 356.83"><defs><style>.cls-1{fill:#f2f2f2;}</style></defs><path class="cls-1" d="M334.86,150.35A47.65,47.65,0,0,0,310,133.54C315.37,91,288.17,51.39,247.3,43.78c-32-6-63.22,9.41-80.2,36.36-33.31-21-76.61-12.86-97.21,18.39A65.09,65.09,0,0,0,59.17,131.8a47.57,47.57,0,0,0,.51,95.13H177.47L157.8,207.26a9.41,9.41,0,0,1,0-13.3l35.2-35.2a22.57,22.57,0,1,1,13.31,13.31l-28.54,28.54,26.31,26.32h93.07a47.58,47.58,0,0,0,37.71-76.58Z"/><path class="cls-1" d="M185.81,235.27l-35.29,35.29h0a22.57,22.57,0,1,0,13.31,13.31l41.94-41.94a9.4,9.4,0,0,0,0-13.31l-1.69-1.69H177.47Z"/></svg>