<svg id="Layer_1" data-name="Layer 1" xmlns="http://www.w3.org/2000/svg" viewBox="0 0 693 576"><defs><style>.cls-1{fill:#666;}</style></defs><path d="M512.8,206.4A47.56,47.56,0,0,1,465.24,254H372.17l-26.32-26.31,28.54-28.55a22.55,22.55,0,1,0-13.31-13.3L325.89,221a9.4,9.4,0,0,0,0,13.31L345.55,254H227.76a47.57,47.57,0,0,1-.5-95.13A65.08,65.08,0,0,1,238,125.57c20.6-31.24,63.91-39.33,97.22-18.38,17-26.95,48.2-42.31,80.2-36.36C456.25,78.44,483.45,118,478,160.58A47.58,47.58,0,0,1,512.8,206.4Z"/><circle cx="310.74" cy="318.78" r="22.59"/><path d="M373.86,269l-56.47,56.47a9.41,9.41,0,0,1-13.31-13.31l14.53-14.53,35.29-35.28L345.55,254h26.62l1.69,1.69A9.42,9.42,0,0,1,373.86,269Z"/><path d="M30.31,470.81v-81.1H64.13a39.77,39.77,0,0,1,15.26,2.57,20.14,20.14,0,0,1,9.27,7.21,18.84,18.84,0,0,1,3.11,10.73,16.78,16.78,0,0,1-7.29,14.26,21.38,21.38,0,0,1-7.88,3.32v.8a19.74,19.74,0,0,1,9.09,2.65A18.45,18.45,0,0,1,92.4,438a19.64,19.64,0,0,1,2.53,10.16,21,21,0,0,1-3.32,11.66A22.52,22.52,0,0,1,82,467.86a35.75,35.75,0,0,1-15.28,2.95Zm19.6-47.76H60.76a14.2,14.2,0,0,0,5.7-1.07,8.87,8.87,0,0,0,3.9-3.09A8.28,8.28,0,0,0,71.77,414a7.83,7.83,0,0,0-2.89-6.41,12,12,0,0,0-7.8-2.34H49.91Zm0,32H62q6.38,0,9.4-2.42a8.12,8.12,0,0,0,3-6.73,9.8,9.8,0,0,0-1.46-5.4,9.64,9.64,0,0,0-4.16-3.53,15.32,15.32,0,0,0-6.46-1.25H49.91Z"/><path d="M126.51,389.71v81.1H107.15v-81.1Z"/><path d="M158.72,471.84a25.74,25.74,0,0,1-10.32-2,15.87,15.87,0,0,1-7.09-5.94,18,18,0,0,1-2.59-10,18.58,18.58,0,0,1,1.78-8.55,15.33,15.33,0,0,1,4.91-5.67,23.47,23.47,0,0,1,7.21-3.3,48.64,48.64,0,0,1,8.71-1.53c3.46-.31,6.24-.65,8.36-1a11.71,11.71,0,0,0,4.61-1.54,3.3,3.3,0,0,0,1.45-2.87v-.2a5.69,5.69,0,0,0-2.1-4.71,8.88,8.88,0,0,0-5.67-1.67,10.39,10.39,0,0,0-6.17,1.67,7.31,7.31,0,0,0-3,4.59L141,428.52a21,21,0,0,1,4.1-9.92,22.07,22.07,0,0,1,9.1-6.89,34.93,34.93,0,0,1,14-2.52,39.94,39.94,0,0,1,10.73,1.37,27.1,27.1,0,0,1,8.56,4,18.22,18.22,0,0,1,5.64,6.36,18,18,0,0,1,2,8.59v41.34H176.85v-8.48h-.47a17.25,17.25,0,0,1-4.14,5.23,16.7,16.7,0,0,1-5.9,3.21A25.37,25.37,0,0,1,158.72,471.84Zm6-12.67a12.44,12.44,0,0,0,5.64-1.27,10.31,10.31,0,0,0,4-3.51,9.1,9.1,0,0,0,1.5-5.2v-5.78a11.74,11.74,0,0,1-2,.79c-.78.24-1.63.46-2.55.67s-1.88.4-2.85.56l-2.81.43a17.16,17.16,0,0,0-4.66,1.35,7.36,7.36,0,0,0-2.93,2.35,5.88,5.88,0,0,0-1,3.43,5.33,5.33,0,0,0,2.16,4.59A9,9,0,0,0,164.7,459.17Z"/><path d="M238.05,472a32.51,32.51,0,0,1-16.5-4A26.77,26.77,0,0,1,211,457a38.27,38.27,0,0,1,0-32.79,26.88,26.88,0,0,1,10.57-11,32.36,32.36,0,0,1,16.42-4,33.37,33.37,0,0,1,14.71,3.05,23.68,23.68,0,0,1,9.82,8.61,25,25,0,0,1,3.74,13h-18.1a12.18,12.18,0,0,0-3.14-7.32,9,9,0,0,0-6.75-2.66,9.67,9.67,0,0,0-5.91,1.88,12.12,12.12,0,0,0-3.93,5.55,29.84,29.84,0,0,0,0,18.13,12.09,12.09,0,0,0,3.93,5.59,10.33,10.33,0,0,0,10.68.73,9.15,9.15,0,0,0,3.42-3.38,13.2,13.2,0,0,0,1.7-5.45h18.1a26.42,26.42,0,0,1-3.74,13.15,23.29,23.29,0,0,1-9.7,8.73A32.85,32.85,0,0,1,238.05,472Z"/><path d="M279,470.81v-81.1h19.36v81.1Zm17.46-16,.08-23.09h2.69L316.35,410h21.94l-25.43,31.2h-5.1Zm20.32,16-15.92-25.27,12.75-13.74,25.54,39Z"/><path class="cls-1" d="M418.17,416.08H405.82a19.06,19.06,0,0,0-2.65-7,19.62,19.62,0,0,0-4.76-5.1,20.36,20.36,0,0,0-6.27-3.17,24.56,24.56,0,0,0-7.35-1.07,22.78,22.78,0,0,0-12.53,3.52,23.85,23.85,0,0,0-8.71,10.34q-3.19,6.81-3.19,16.63T363.55,447a23.53,23.53,0,0,0,8.73,10.3,23,23,0,0,0,12.47,3.48,25.09,25.09,0,0,0,7.31-1.05,20.44,20.44,0,0,0,6.27-3.11,18.87,18.87,0,0,0,7.49-11.92l12.35,0a33.06,33.06,0,0,1-3.82,11,30.43,30.43,0,0,1-7.24,8.63A32.87,32.87,0,0,1,397,469.94a37.25,37.25,0,0,1-12.36,2,35.4,35.4,0,0,1-18.77-5,34.71,34.71,0,0,1-13-14.36q-4.73-9.35-4.73-22.29T353,408a34.83,34.83,0,0,1,13-14.34,35.33,35.33,0,0,1,18.73-5,38.57,38.57,0,0,1,12.06,1.84,32.4,32.4,0,0,1,10.08,5.39,29.93,29.93,0,0,1,7.4,8.63A33.28,33.28,0,0,1,418.17,416.08Z"/><path class="cls-1" d="M446.5,389.71v81.1H434.66v-81.1Z"/><path class="cls-1" d="M490.83,472a27.94,27.94,0,0,1-14.93-3.92,26.48,26.48,0,0,1-9.9-11,40.4,40.4,0,0,1,0-33,26.46,26.46,0,0,1,9.9-11,30.39,30.39,0,0,1,29.86,0,26.53,26.53,0,0,1,9.9,11,40.5,40.5,0,0,1,0,33,26.54,26.54,0,0,1-9.9,11A28,28,0,0,1,490.83,472Zm0-9.94a14.2,14.2,0,0,0,9.18-2.93,17.42,17.42,0,0,0,5.41-7.8,33.56,33.56,0,0,0,0-21.45,17.61,17.61,0,0,0-5.41-7.86,15.78,15.78,0,0,0-18.43,0,17.47,17.47,0,0,0-5.42,7.86,33.38,33.38,0,0,0,0,21.45,17.28,17.28,0,0,0,5.42,7.8A14.35,14.35,0,0,0,490.87,462.1Z"/><path class="cls-1" d="M573.68,445.58V410h11.88v60.82H573.92V460.28h-.63a18.91,18.91,0,0,1-6.72,8.09,19.42,19.42,0,0,1-11.46,3.23A20.35,20.35,0,0,1,544.75,469a17.8,17.8,0,0,1-7-7.71,27.94,27.94,0,0,1-2.56-12.63V410H547v37.26q0,6.21,3.45,9.9a11.7,11.7,0,0,0,8.95,3.68,14.62,14.62,0,0,0,6.63-1.66,14.13,14.13,0,0,0,5.5-5A15.1,15.1,0,0,0,573.68,445.58Z"/><path class="cls-1" d="M627,472a23.33,23.33,0,0,1-13.13-3.79,25.29,25.29,0,0,1-9-10.81,39.74,39.74,0,0,1-3.27-16.88,39.31,39.31,0,0,1,3.31-16.87A25,25,0,0,1,614,412.92a23.61,23.61,0,0,1,13.11-3.73,19.15,19.15,0,0,1,9.12,1.88,16.87,16.87,0,0,1,5.39,4.38,38,38,0,0,1,3,4.39h.71V389.71h11.84v81.1H645.57v-9.47h-1a31.62,31.62,0,0,1-3.07,4.44,17.5,17.5,0,0,1-5.49,4.36A19.1,19.1,0,0,1,627,472Zm2.61-10.1a13.8,13.8,0,0,0,8.65-2.71,16.8,16.8,0,0,0,5.39-7.55,31.42,31.42,0,0,0,1.84-11.24,31,31,0,0,0-1.82-11.09,16.34,16.34,0,0,0-5.35-7.41,15.68,15.68,0,0,0-17.62.12,16.85,16.85,0,0,0-5.37,7.57,30.52,30.52,0,0,0-1.8,10.81,31.28,31.28,0,0,0,1.82,11,17.34,17.34,0,0,0,5.41,7.7A13.82,13.82,0,0,0,629.61,461.9Z"/></svg>